<?xml version="1.0" encoding="utf-8"?>
<!-- Generator: Adobe Illustrator 25.0.0, SVG Export Plug-In . SVG Version: 6.00 Build 0)  -->
<svg version="1.1" id="Layer_1" xmlns="http://www.w3.org/2000/svg" xmlns:xlink="http://www.w3.org/1999/xlink" x="0px" y="0px"
	 viewBox="0 0 143.3 35.9" style="enable-background:new 0 0 143.3 35.9;" xml:space="preserve">
<style type="text/css">
	.st0{fill:#E9327C;}
	.st1{fill:#1DACE3;}
	.st2{fill:#001A49;}
</style>
<path class="st0" d="M24.2,27.2L6.2,14.8c-1.8-1.3-1.2-3.9,1.1-4.5l19.1-5.2c1.4-0.5,3,0.2,3.5,1.6C29.9,7,30,7.3,30,7.6l-1.1,17.5
	C28.7,27.3,26,28.4,24.2,27.2z"/>
<path class="st1" d="M18.5,30.2L7.9,9.5C7.2,8.1,7.8,6.4,9.2,5.7c0.5-0.3,1.2-0.4,1.8-0.3l19.6,3c1.6,0.2,2.7,1.7,2.4,3.3
	c0,0.3-0.1,0.6-0.3,0.9l-9,17.6c-0.7,1.4-2.5,2-3.9,1.2C19.2,31.2,18.8,30.8,18.5,30.2z"/>
<path class="st2" d="M29.9,8.3l-9.8-1.5l-12,3.3l4.8,9.4l11.2,7.7c0.2,0.2,0.5,0.3,0.8,0.4l4.3-8.3L29.9,8.3z"/>
<path class="st2" d="M79.4,10.7c0-1,0.8-1.8,1.8-1.8c1,0,1.8,0.8,1.8,1.8c0,1-0.8,1.8-1.8,1.8l0,0C80.2,12.6,79.4,11.7,79.4,10.7z
	 M79.7,13.5h3.1v10.2h-3.1V13.5z"/>
<path class="st2" d="M96,18.6c0.1,2.8-2,5.2-4.8,5.4c0,0,0,0,0,0c-1.1,0.1-2.3-0.4-3-1.2v5H85V13.5h3.1v1c0.8-0.8,1.9-1.3,3-1.2
	C93.9,13.3,96.1,15.7,96,18.6C96,18.5,96,18.6,96,18.6z M92.9,18.6c0-1.3-1.1-2.4-2.5-2.4c-1.3,0-2.4,1.1-2.4,2.5
	c0,1.3,1.1,2.4,2.4,2.4c1.3,0.1,2.4-0.9,2.4-2.2C92.9,18.7,92.9,18.7,92.9,18.6z"/>
<path class="st2" d="M105.4,20.6c0,2.3-2,3.3-4.2,3.3c-1.8,0.2-3.6-0.8-4.4-2.4l2.7-1.5c0.2,0.8,0.9,1.3,1.7,1.2
	c0.7,0,1.1-0.2,1.1-0.6c0-1.1-5-0.5-5-4.1c0-2.2,1.9-3.3,4-3.3c1.6-0.1,3.1,0.8,4,2.2l-2.6,1.4c-0.2-0.5-0.8-0.9-1.4-0.9
	c-0.5,0-0.9,0.2-0.9,0.6C100.4,17.6,105.4,16.8,105.4,20.6z"/>
<path class="st2" d="M116.6,13.5v10.2h-3.1v-1c-0.7,0.9-1.8,1.3-2.9,1.2c-2.1,0-3.8-1.5-3.8-4.2v-6.3h3.1v5.8
	c-0.1,0.9,0.6,1.8,1.5,1.8c0.1,0,0.2,0,0.3,0c1.1,0,1.9-0.7,1.9-2.1v-5.6H116.6z"/>
<path class="st2" d="M134.1,17.4v6.3h-3.1v-6c0-1-0.5-1.7-1.5-1.7c-1,0-1.6,0.7-1.6,1.9v5.7h-3.1v-6c0-1-0.5-1.7-1.5-1.7
	c-1,0-1.6,0.7-1.6,1.9v5.7h-3.1V13.5h3.1v0.9c0.6-0.8,1.7-1.3,2.7-1.2c1.1-0.1,2.1,0.5,2.7,1.3c0.7-0.9,1.8-1.4,3-1.3
	C132.6,13.2,134.1,14.9,134.1,17.4z"/>
<circle class="st2" cx="136.7" cy="11.1" r="2.3"/>
<path class="st2" d="M37.6,8.8h3.1v14.9h-3.1V8.8z M42.4,18.6c0-3,2.4-5.4,5.4-5.4c3,0,5.4,2.4,5.4,5.4c0,3-2.4,5.4-5.4,5.4
	c0,0,0,0,0,0C44.9,24,42.5,21.6,42.4,18.6C42.4,18.6,42.4,18.6,42.4,18.6z M50.2,18.6c0-1.3-1.1-2.3-2.4-2.3c-1.3,0-2.3,1.1-2.3,2.4
	c0,1.3,1.1,2.3,2.3,2.3c1.3,0,2.3-1,2.4-2.2C50.2,18.7,50.2,18.6,50.2,18.6L50.2,18.6z M65.4,13.5v9.7c0,3.4-2.7,4.9-5.4,4.9
	c-1.9,0.1-3.8-0.8-4.8-2.5l2.6-1.5c0.4,0.9,1.4,1.4,2.3,1.3c1.1,0.2,2.1-0.6,2.3-1.7c0-0.1,0-0.3,0-0.4v-0.9c-0.7,0.9-1.8,1.4-3,1.3
	c-2.9-0.1-5.1-2.5-5-5.3c0.1-2.7,2.3-4.9,5-5c1.1-0.1,2.3,0.4,3,1.3v-1L65.4,13.5z M62.5,18.4c0.1-1.4-1-2.5-2.4-2.6
	c-1.4-0.1-2.5,1-2.6,2.4s1,2.5,2.4,2.6c0,0,0.1,0,0.1,0c1.3,0.1,2.4-0.9,2.5-2.1C62.5,18.5,62.5,18.4,62.5,18.4L62.5,18.4z
	 M67.2,18.6c0-3,2.4-5.4,5.4-5.4c3,0,5.4,2.4,5.4,5.4c0,3-2.4,5.4-5.4,5.4c0,0,0,0,0,0C69.6,24,67.2,21.6,67.2,18.6
	C67.2,18.6,67.2,18.6,67.2,18.6L67.2,18.6z M74.9,18.6c0-1.3-1.1-2.3-2.4-2.3c-1.3,0-2.3,1.1-2.3,2.4c0,1.3,1.1,2.3,2.3,2.3
	c1.3,0,2.3-1,2.3-2.2C74.9,18.7,74.9,18.6,74.9,18.6L74.9,18.6z"/>
</svg>
